<?xml version="1.0" encoding="UTF-8"?>
<svg id="OBJECTS" xmlns="http://www.w3.org/2000/svg" version="1.1" viewBox="0 0 500 500">
  <defs>
    <style>
      .cls-1 {
        fill: #dc4405;
      }

      .cls-1, .cls-2 {
        stroke-width: 0px;
      }

      .cls-2 {
        fill: #f47e20;
      }
    </style>
  </defs>
  <path class="cls-1" d="M454.4,271.6c17.6-53,14.6-107.8-9.1-164.4l-2.1-4.5c-21.8-45.5-51.3-75-88.5-88.3-37.3-13.4-76.4-14-117.3-1.8-40.9,12.2-77.9,33.5-110.8,64.1-35.9,33.3-62.3,74.5-79.2,123.6-17,49.2-17.3,102.2-.9,159.2,3.8,11.5,8.2,22.5,13.2,33,20.7,43.3,49,70.8,85.1,82.5,36.1,11.8,74.2,10.8,114.4-2.8,4.2-1.4,8.4-3,12.5-4.6,37,15.6,96.3,32.8,100.1,27.6,3.1-4.2-6.6-47.2-14.3-79.2,3.9-3.3,7.7-6.6,11.4-10.1,39.3-36.5,67.8-81.2,85.4-134.2"/>
  <path class="cls-2" d="M299.4,398.5l-7.1-.4c-14-1.4-23.6-5.4-29-12.1-5.4-6.7-8.3-14.6-8.8-23.7-.6-10.5.5-21.5,3.2-32.9,2-9.4,2.8-17.5,2.4-24.2-.4-6.9-3.7-11.1-9.8-12.5l-7.5-.4c-10,0-17.3,2.6-21.9,7.7-4.6,5.1-7.6,11.7-8.9,19.8-1.4,8.1-2.2,16.4-2.6,25-.6,10.3-1.8,19.5-3.7,27.7-1.9,8.2-6.1,13.8-12.6,16.9-7.6,3.1-15,4.6-22.2,4.6-10.6,0-20-3.5-28.3-10.4-8.3-6.9-14.1-18.1-17.4-33.3-.4-2.5-.7-5.4-.9-8.8-1.1-20.8,1.6-49.8,8.2-86.8,6.6-37.1,12-65.6,16.2-85.6,2.9-13.9,5.9-25.9,9.1-36,3.2-10.1,7.8-17.9,13.9-23.3,6.1-5.4,15-8.1,26.6-8.1s9.7.4,15.1,1.3c10.7,1.9,18.5,5.3,23.5,10,3,3.6,4.6,8.9,5,15.8.4,6.7,0,14.3-1.3,22.9-1.2,8.6-2.7,17.4-4.4,26.2-3.6,16.4-5.1,29-4.6,37.9.3,4.7,1.5,7.6,3.8,8.7,2,.8,5,1.6,9.1,2.3,4.1.7,8.2,1,12.3,1s10-.8,13.2-2.5c2.9-2.2,5.5-7.8,7.6-16.9,2.1-9,4.3-19.4,6.4-31,2.1-11.7,4.5-22.8,6.9-33.3,2.5-10.5,5.4-18.5,8.7-23.7,4.6-6.7,10.6-11.3,18-14,7.4-2.6,14.8-4,22.3-4s13.4.8,19.3,2.5c5.9,1.7,10.2,3.7,12.8,6.2,2.1,2.2,3.3,6.8,3.7,13.7.8,15.6-1.4,39.2-6.6,71-5.2,31.8-10.8,61.9-16.8,90.4-6,28.5-10.1,47.4-12.3,56.9-4.2,20.3-8.7,34.6-13.5,42.9-4.8,8.3-13.9,12.5-27.2,12.5"/>
</svg>