<svg width="41" height="43" viewBox="0 0 41 43" fill="none" xmlns="http://www.w3.org/2000/svg">
<path d="M38.0039 23.3801C39.5605 18.7483 39.2916 13.963 37.2052 9.01595L37.0177 8.62795C35.1025 4.65094 32.5027 2.08044 29.2183 0.916438C25.9339 -0.247564 22.4947 -0.304148 18.8843 0.75477C15.282 1.81369 12.0221 3.68094 9.1207 6.35653C5.95854 9.26653 3.63583 12.8636 2.1444 17.1559C0.644822 21.4481 0.620367 26.088 2.0629 31.0673C2.39704 32.0697 2.78824 33.0316 3.22834 33.945C5.04576 37.728 7.54777 40.1287 10.7262 41.1553C13.9047 42.1819 17.2624 42.1011 20.8076 40.9128C21.1825 40.7835 21.5493 40.6461 21.9079 40.5087C25.1678 41.8748 30.3919 43.3702 30.7342 42.9175C31.0113 42.5457 30.1556 38.795 29.471 35.9982C29.8133 35.7152 30.1474 35.4242 30.4734 35.1171C33.9371 31.9322 36.4473 28.0199 37.9957 23.3881" fill="#EC752D"/>
<g clip-path="url(#clip0_4_1434)">
<path d="M19.9702 24.4295C17.457 25.0221 15.0406 25.6238 12.6083 26.1537C10.928 26.5205 9.2318 26.8207 7.53159 27.0843C6.84063 27.1913 6.11917 27.177 5.4176 27.1261C3.97467 27.023 2.9084 26.3417 2.37128 24.9777C1.62992 23.093 0.891219 21.2083 0.179041 19.3131C-0.00397723 18.8262 -0.156492 18.2598 0.302379 17.8434C0.769207 17.4192 1.37661 17.4362 1.92567 17.6698C2.32088 17.8382 2.70548 18.0849 3.01847 18.376C3.69086 19.0038 4.36193 19.6446 4.94679 20.3494C5.7969 21.3727 6.86715 21.6481 8.09258 21.3283C10.2251 20.7697 12.3405 20.1471 14.4624 19.5493C20.4901 17.8513 26.5098 16.1245 32.5493 14.4682C35.3609 13.6968 38.0226 13.9735 40.3197 15.9678C41.305 16.8228 41.2374 17.6907 40.0067 18.1384C37.3357 19.1082 34.6328 19.9892 31.938 20.8976C31.1449 21.1652 30.3545 21.4706 29.5362 21.6285C28.5747 21.8152 28.0667 22.3751 27.5919 23.1739C25.474 26.7384 23.299 30.2703 21.1253 33.8022C20.2023 35.3019 18.9251 36.4061 17.1984 36.9321C16.9053 37.0209 16.5724 36.9804 16.2581 37C16.2899 36.7102 16.2753 36.4061 16.3602 36.1333C17.5392 32.3313 18.7315 28.5331 19.9198 24.7323C19.9437 24.6553 19.9476 24.5731 19.9715 24.4295H19.9702Z" fill="white"/>
<path d="M7.99048 12.6095C9.12837 12 10.2172 11.8799 11.3047 12.1057C12.1813 12.2871 13.0434 12.5991 13.8683 12.9515C16.5366 14.0909 19.1851 15.2761 22.0245 16.5252C20.5776 16.9402 19.323 17.3018 18.0684 17.6607C17.4544 17.8369 16.8271 17.9805 16.2303 18.1997C15.7422 18.3786 15.3855 18.3016 14.973 17.9831C12.8338 16.3359 10.6694 14.7227 8.51699 13.0938C8.3658 12.9802 8.23848 12.8379 7.9918 12.6082L7.99048 12.6095Z" fill="white"/>
</g>
<defs>
<clipPath id="clip0_4_1434">
<rect width="41" height="25" fill="white" transform="translate(0 12)"/>
</clipPath>
</defs>
</svg>
