<svg width="98" height="37" viewBox="0 0 98 37" fill="rgb(220,68,5)" xmlns="http://www.w3.org/2000/svg">
<path d="M22.438 36.9769L21.5287 36.9262C19.7433 36.751 18.5072 36.2531 17.8205 35.4232C17.1338 34.5933 16.7597 33.6066 16.6981 32.4632C16.6271 31.1492 16.7597 29.7844 17.1101 28.3644C17.3659 27.1887 17.47 26.1836 17.4227 25.3536C17.3753 24.4915 16.9538 23.9705 16.1629 23.7999L15.2016 23.7492C13.9229 23.7492 12.9899 24.0673 12.4026 24.7082C11.8154 25.349 11.4365 26.1697 11.2613 27.1748C11.0861 28.1799 10.9771 29.2173 10.9298 30.287C10.8587 31.5687 10.7025 32.7168 10.4562 33.7357C10.2099 34.7546 9.67478 35.4555 8.84126 35.8381C7.86567 36.2208 6.91849 36.4098 5.99499 36.4098C4.64526 36.4098 3.43761 35.9764 2.37677 35.1143C1.31593 34.2521 0.5724 32.8643 0.14617 30.9647C0.094075 30.6512 0.0561879 30.2916 0.0325085 29.8766C-0.114304 27.2809 0.236152 23.6754 1.08388 19.0602C1.92686 14.445 2.6183 10.8902 3.15346 8.4005C3.51812 6.67153 3.90646 5.17769 4.31849 3.91439C4.72577 2.65109 5.3225 1.68287 6.09918 1.00972C6.8806 0.336573 8.01721 0 9.50902 0C10.1152 0 10.7546 0.0507165 11.4365 0.15676C12.8005 0.401121 13.7997 0.816075 14.4391 1.40162C14.818 1.85346 15.0358 2.50816 15.0832 3.37495C15.1305 4.20486 15.0737 5.15925 14.9221 6.22891C14.7706 7.30318 14.5812 8.39128 14.3586 9.49782C13.9039 11.5403 13.705 13.1125 13.7666 14.2191C13.7997 14.8092 13.9608 15.1688 14.2544 15.3072C14.5054 15.4132 14.8937 15.5054 15.4147 15.593C15.9356 15.6806 16.4613 15.7221 16.9917 15.7221C17.7021 15.7221 18.2657 15.6161 18.6777 15.4132C19.0518 15.1366 19.3786 14.4358 19.6533 13.3108C19.928 12.1858 20.2027 10.8994 20.4773 9.4471C20.752 7.99477 21.0456 6.61159 21.3629 5.29757C21.6803 3.98355 22.0544 2.99688 22.4759 2.34218C23.0679 1.51227 23.8351 0.93134 24.7775 0.603988C25.72 0.276636 26.6671 0.110654 27.6285 0.110654C28.5141 0.110654 29.3382 0.216698 30.0959 0.424174C30.8537 0.631651 31.403 0.889844 31.7393 1.20336C32.0045 1.48 32.1608 2.05171 32.2081 2.91389C32.3171 4.85034 32.0376 7.80112 31.3699 11.7616C30.7021 15.7221 29.987 19.4751 29.2245 23.0207C28.462 26.5662 27.9364 28.9269 27.6475 30.1026C27.1123 32.6292 26.5345 34.4088 25.9189 35.4462C25.3032 36.4836 24.1382 37 22.4333 37" fill="rgb(220,68,5)"/>
<path d="M42.3078 37C40.6912 37 39.1167 36.8296 37.5845 36.4933C35.2369 35.9866 33.5125 35.0315 32.4113 33.6191C31.3102 32.2067 30.7104 30.6104 30.612 28.8258C30.4901 26.7049 30.9306 24.5705 31.9381 22.4182C32.9408 20.2659 34.3231 18.4589 36.085 16.9926C37.8469 15.5309 39.8196 14.8 41.9985 14.8H42.3125C44.5007 14.9345 46.2486 15.7237 47.5606 17.172C48.8726 18.6203 49.5849 20.3332 49.6973 22.3196C49.791 23.9697 49.4443 25.6511 48.6664 27.364C48.3806 27.938 47.9542 28.3325 47.3872 28.5478C46.8202 28.7675 46.183 28.8751 45.4801 28.8751C44.4961 28.8751 43.4699 28.772 42.4062 28.5747C41.5159 28.4043 40.7568 28.3236 40.1242 28.3236C39.4916 28.3236 39.0605 28.476 38.8309 28.7764C38.6669 29.0141 38.5919 29.2159 38.6013 29.3818C38.62 29.7539 38.9668 29.9781 39.6416 30.0633C40.3116 30.1485 41.141 30.1889 42.125 30.1889C43.5636 30.1575 44.9225 30.2651 46.2017 30.5162C47.4809 30.7673 48.2213 31.4309 48.4228 32.5071L48.4415 32.8613C48.5024 33.9375 48.2494 34.7715 47.6871 35.3589C47.1201 35.9463 46.3657 36.3678 45.4098 36.6189C44.4586 36.87 43.4183 36.9955 42.2937 36.9955M40.0492 24.1311C40.5412 24.1311 40.9817 23.8351 41.3706 23.2477C41.7595 22.6604 41.9423 22.1312 41.9142 21.6604C41.8907 21.2569 41.6471 21.0192 41.1879 20.952H41.1363C40.4381 21.0192 39.9649 21.3466 39.7165 21.934C39.4682 22.5213 39.3557 23.0191 39.3791 23.4226C39.3979 23.7275 39.4588 23.9114 39.5666 23.9786C39.7118 24.0818 39.8712 24.1311 40.0492 24.1311Z" fill="rgb(220,68,5)"/>
<path d="M55.7184 36.9909C54.7597 36.9909 53.8576 36.6575 53.0028 35.9907C52.1479 35.324 51.619 34.3878 51.4112 33.1913L51.3781 32.5748C51.2789 30.8257 51.4537 27.9258 51.8976 23.866C52.3416 19.8061 52.9319 15.7371 53.6593 11.6635C54.3866 7.58541 55.1659 4.4526 56.0018 2.26055C56.2852 1.61207 56.8567 1.06862 57.7162 0.643915C58.5805 0.214638 59.4542 0 60.3374 0C61.1167 0 61.8015 0.205505 62.3919 0.616515C62.9822 1.02752 63.3034 1.71254 63.3601 2.67156L63.3695 2.87707C63.3601 5.27462 63.0814 8.6586 62.5288 13.0244C61.9763 17.3948 61.3812 21.6145 60.7389 25.6927C60.0965 29.7708 59.6054 32.5291 59.2606 33.9677C59.0339 34.9952 58.59 35.7578 57.9287 36.2556C57.2675 36.7534 56.5261 37 55.7137 37" fill="rgb(220,68,5)"/>
<path d="M68.2783 36.9909C67.3196 36.9909 66.4175 36.6575 65.5674 35.9907C64.7126 35.324 64.1836 34.3878 63.9758 33.1913L63.9427 32.5748C63.8436 30.8257 64.0183 27.9258 64.467 23.866C64.9109 19.8061 65.5013 15.7371 66.2286 11.6635C66.9559 7.58541 67.7399 4.4526 68.5712 2.26055C68.8545 1.61207 69.426 1.06862 70.2856 0.643915C71.1451 0.214638 72.0189 0 72.9068 0C73.6861 0 74.3709 0.205505 74.9612 0.616515C75.5516 1.02752 75.8728 1.71254 75.9247 2.67156L75.9342 2.87707C75.9247 5.27462 75.6461 8.6586 75.0935 13.0244C74.5409 17.3948 73.9458 21.6145 73.3035 25.6927C72.6612 29.7708 72.17 32.5291 71.83 33.9677C71.6033 34.9952 71.1593 35.7578 70.4981 36.2556C69.8369 36.7534 69.0954 37 68.2831 37" fill="rgb(220,68,5)"/>
<path d="M97.2129 25.9059C98.108 23.2869 97.9534 20.5811 96.7536 17.7838L96.6458 17.5644C95.5445 15.3156 94.0495 13.8621 92.1609 13.2039C90.2722 12.5457 88.2945 12.5137 86.2183 13.1125C84.1469 13.7113 82.2723 14.7671 80.6039 16.28C78.7855 17.9255 77.4499 19.9594 76.5922 22.3865C75.7299 24.8135 75.7159 27.4371 76.5454 30.2527C76.7375 30.8195 76.9625 31.3634 77.2155 31.8799C78.2606 34.019 79.6994 35.3765 81.5271 35.9569C83.3549 36.5374 85.2857 36.4917 87.3243 35.8198C87.5399 35.7467 87.7508 35.669 87.957 35.5913C89.8316 36.3637 92.8357 37.2093 93.0325 36.9534C93.1919 36.7431 92.6998 34.6223 92.3061 33.0408C92.503 32.8808 92.6951 32.7163 92.8826 32.5426C94.8743 30.7418 96.3178 28.5295 97.2082 25.9105" fill="rgb(220,68,5)"/>
</svg>
